<mxfile host="app.diagrams.net" agent="Mozilla/5.0 (Windows NT 10.0; Win64; x64; rv:131.0) Gecko/20100101 Firefox/131.0" version="24.8.2">
  <diagram id="C5RBs43oDa-KdzZeNtuy" name="Page-1">
    <mxGraphModel dx="2261" dy="782" grid="1" gridSize="10" guides="1" tooltips="1" connect="1" arrows="1" fold="1" page="1" pageScale="1" pageWidth="827" pageHeight="1169" math="0" shadow="0">
      <root>
        <mxCell id="WIyWlLk6GJQsqaUBKTNV-0" />
        <mxCell id="WIyWlLk6GJQsqaUBKTNV-1" parent="WIyWlLk6GJQsqaUBKTNV-0" />
        <mxCell id="IpZeFkb6ckXX8hu6LvWV-39" value="petowner" style="swimlane;fontStyle=1;align=center;verticalAlign=top;childLayout=stackLayout;horizontal=1;startSize=30;horizontalStack=0;resizeParent=1;resizeParentMax=0;resizeLast=0;collapsible=1;marginBottom=0;whiteSpace=wrap;html=1;" parent="WIyWlLk6GJQsqaUBKTNV-1" vertex="1">
          <mxGeometry x="-480" y="40" width="160" height="190" as="geometry" />
        </mxCell>
        <mxCell id="IpZeFkb6ckXX8hu6LvWV-40" value="&lt;div&gt;#name: String&lt;br&gt;&lt;/div&gt;#djur: List&lt;br&gt;&lt;div&gt;&lt;br&gt;&lt;/div&gt;" style="text;strokeColor=none;fillColor=none;align=left;verticalAlign=top;spacingLeft=4;spacingRight=4;overflow=hidden;rotatable=0;points=[[0,0.5],[1,0.5]];portConstraint=eastwest;whiteSpace=wrap;html=1;" parent="IpZeFkb6ckXX8hu6LvWV-39" vertex="1">
          <mxGeometry y="30" width="160" height="50" as="geometry" />
        </mxCell>
        <mxCell id="IpZeFkb6ckXX8hu6LvWV-41" value="" style="line;strokeWidth=1;fillColor=none;align=left;verticalAlign=middle;spacingTop=-1;spacingLeft=3;spacingRight=3;rotatable=0;labelPosition=right;points=[];portConstraint=eastwest;strokeColor=inherit;" parent="IpZeFkb6ckXX8hu6LvWV-39" vertex="1">
          <mxGeometry y="80" width="160" height="8" as="geometry" />
        </mxCell>
        <mxCell id="IpZeFkb6ckXX8hu6LvWV-42" value="&lt;div&gt;__init__(name, djur: list)&lt;br&gt;print_animals():String&lt;br&gt;&lt;/div&gt;&lt;div&gt;play(djurtyp: String): String &lt;br&gt;&lt;/div&gt;&lt;div&gt;feed(djurtyp: String): void&lt;br&gt;&lt;/div&gt;&lt;div&gt;meny(int): String &lt;br&gt;&lt;/div&gt;" style="text;strokeColor=none;fillColor=none;align=left;verticalAlign=top;spacingLeft=4;spacingRight=4;overflow=hidden;rotatable=0;points=[[0,0.5],[1,0.5]];portConstraint=eastwest;whiteSpace=wrap;html=1;" parent="IpZeFkb6ckXX8hu6LvWV-39" vertex="1">
          <mxGeometry y="88" width="160" height="102" as="geometry" />
        </mxCell>
        <mxCell id="IpZeFkb6ckXX8hu6LvWV-49" value="Animals" style="swimlane;fontStyle=1;align=center;verticalAlign=top;childLayout=stackLayout;horizontal=1;startSize=26;horizontalStack=0;resizeParent=1;resizeParentMax=0;resizeLast=0;collapsible=1;marginBottom=0;whiteSpace=wrap;html=1;" parent="WIyWlLk6GJQsqaUBKTNV-1" vertex="1">
          <mxGeometry x="-90" y="40" width="230" height="220" as="geometry" />
        </mxCell>
        <mxCell id="IpZeFkb6ckXX8hu6LvWV-50" value="&lt;div&gt;#age: int&lt;br&gt;&lt;/div&gt;&lt;div&gt;#name: string&lt;br&gt;&lt;/div&gt;&lt;div&gt;#hungry. bool&lt;br&gt;&lt;/div&gt;&lt;div&gt;#favourit_food: string&lt;br&gt;&lt;/div&gt;" style="text;strokeColor=none;fillColor=none;align=left;verticalAlign=top;spacingLeft=4;spacingRight=4;overflow=hidden;rotatable=0;points=[[0,0.5],[1,0.5]];portConstraint=eastwest;whiteSpace=wrap;html=1;" parent="IpZeFkb6ckXX8hu6LvWV-49" vertex="1">
          <mxGeometry y="26" width="230" height="74" as="geometry" />
        </mxCell>
        <mxCell id="IpZeFkb6ckXX8hu6LvWV-51" value="" style="line;strokeWidth=1;fillColor=none;align=left;verticalAlign=middle;spacingTop=-1;spacingLeft=3;spacingRight=3;rotatable=0;labelPosition=right;points=[];portConstraint=eastwest;strokeColor=inherit;" parent="IpZeFkb6ckXX8hu6LvWV-49" vertex="1">
          <mxGeometry y="100" width="230" height="8" as="geometry" />
        </mxCell>
        <mxCell id="IpZeFkb6ckXX8hu6LvWV-52" value="&lt;div&gt;&lt;div&gt;+ __init__ (age int, name string)&lt;/div&gt;&lt;div&gt;+eat(mat: String. Snack:String): void&lt;br&gt;&lt;/div&gt;&lt;/div&gt;&lt;div&gt;+interact(throw_ball: bool) : void&lt;br&gt;&lt;/div&gt;&lt;div&gt;+get_name() : String&lt;br&gt;&lt;/div&gt;&lt;div&gt;+visa_info(): String&lt;br&gt;&lt;/div&gt;" style="text;strokeColor=none;fillColor=none;align=left;verticalAlign=top;spacingLeft=4;spacingRight=4;overflow=hidden;rotatable=0;points=[[0,0.5],[1,0.5]];portConstraint=eastwest;whiteSpace=wrap;html=1;" parent="IpZeFkb6ckXX8hu6LvWV-49" vertex="1">
          <mxGeometry y="108" width="230" height="112" as="geometry" />
        </mxCell>
        <mxCell id="txLho1STB2wt83NE6U45-16" style="edgeStyle=orthogonalEdgeStyle;rounded=0;orthogonalLoop=1;jettySize=auto;html=1;exitX=0.5;exitY=1;exitDx=0;exitDy=0;entryX=0.5;entryY=0;entryDx=0;entryDy=0;" parent="WIyWlLk6GJQsqaUBKTNV-1" source="txLho1STB2wt83NE6U45-1" target="txLho1STB2wt83NE6U45-8" edge="1">
          <mxGeometry relative="1" as="geometry" />
        </mxCell>
        <mxCell id="txLho1STB2wt83NE6U45-1" value="Dog" style="swimlane;fontStyle=1;align=center;verticalAlign=top;childLayout=stackLayout;horizontal=1;startSize=26;horizontalStack=0;resizeParent=1;resizeParentMax=0;resizeLast=0;collapsible=1;marginBottom=0;whiteSpace=wrap;html=1;" parent="WIyWlLk6GJQsqaUBKTNV-1" vertex="1">
          <mxGeometry x="190" y="350" width="190" height="120" as="geometry" />
        </mxCell>
        <mxCell id="txLho1STB2wt83NE6U45-2" value="&lt;div&gt;__init__ (age: int, name:string)&lt;/div&gt;&lt;div&gt;interact()&lt;/div&gt;&lt;div&gt;eat()&lt;br&gt;&lt;/div&gt;" style="text;strokeColor=none;fillColor=none;align=left;verticalAlign=top;spacingLeft=4;spacingRight=4;overflow=hidden;rotatable=0;points=[[0,0.5],[1,0.5]];portConstraint=eastwest;whiteSpace=wrap;html=1;" parent="txLho1STB2wt83NE6U45-1" vertex="1">
          <mxGeometry y="26" width="190" height="74" as="geometry" />
        </mxCell>
        <mxCell id="txLho1STB2wt83NE6U45-3" value="" style="line;strokeWidth=1;fillColor=none;align=left;verticalAlign=middle;spacingTop=-1;spacingLeft=3;spacingRight=3;rotatable=0;labelPosition=right;points=[];portConstraint=eastwest;strokeColor=inherit;" parent="txLho1STB2wt83NE6U45-1" vertex="1">
          <mxGeometry y="100" width="190" height="20" as="geometry" />
        </mxCell>
        <mxCell id="txLho1STB2wt83NE6U45-8" value="Puppy" style="swimlane;fontStyle=1;align=center;verticalAlign=top;childLayout=stackLayout;horizontal=1;startSize=26;horizontalStack=0;resizeParent=1;resizeParentMax=0;resizeLast=0;collapsible=1;marginBottom=0;whiteSpace=wrap;html=1;" parent="WIyWlLk6GJQsqaUBKTNV-1" vertex="1">
          <mxGeometry x="190" y="510" width="190" height="120" as="geometry" />
        </mxCell>
        <mxCell id="txLho1STB2wt83NE6U45-9" value="#months(int): void" style="text;strokeColor=none;fillColor=none;align=left;verticalAlign=top;spacingLeft=4;spacingRight=4;overflow=hidden;rotatable=0;points=[[0,0.5],[1,0.5]];portConstraint=eastwest;whiteSpace=wrap;html=1;" parent="txLho1STB2wt83NE6U45-8" vertex="1">
          <mxGeometry y="26" width="190" height="26" as="geometry" />
        </mxCell>
        <mxCell id="txLho1STB2wt83NE6U45-10" value="" style="line;strokeWidth=1;fillColor=none;align=left;verticalAlign=middle;spacingTop=-1;spacingLeft=3;spacingRight=3;rotatable=0;labelPosition=right;points=[];portConstraint=eastwest;strokeColor=inherit;" parent="txLho1STB2wt83NE6U45-8" vertex="1">
          <mxGeometry y="52" width="190" height="8" as="geometry" />
        </mxCell>
        <mxCell id="txLho1STB2wt83NE6U45-11" value="&lt;div&gt;__init__ (age: int, name: string)&lt;/div&gt;&lt;div&gt;interact()&lt;/div&gt;&lt;div&gt;eat()&lt;br&gt;&lt;/div&gt;" style="text;strokeColor=none;fillColor=none;align=left;verticalAlign=top;spacingLeft=4;spacingRight=4;overflow=hidden;rotatable=0;points=[[0,0.5],[1,0.5]];portConstraint=eastwest;whiteSpace=wrap;html=1;" parent="txLho1STB2wt83NE6U45-8" vertex="1">
          <mxGeometry y="60" width="190" height="60" as="geometry" />
        </mxCell>
        <mxCell id="txLho1STB2wt83NE6U45-17" value="Cat" style="swimlane;fontStyle=1;align=center;verticalAlign=top;childLayout=stackLayout;horizontal=1;startSize=26;horizontalStack=0;resizeParent=1;resizeParentMax=0;resizeLast=0;collapsible=1;marginBottom=0;whiteSpace=wrap;html=1;" parent="WIyWlLk6GJQsqaUBKTNV-1" vertex="1">
          <mxGeometry x="-120" y="356" width="200" height="108" as="geometry" />
        </mxCell>
        <mxCell id="txLho1STB2wt83NE6U45-18" value="&lt;div&gt;__init__(age; int, name: string&lt;/div&gt;&lt;div&gt;interact(): String&lt;br&gt;&lt;/div&gt;&lt;div&gt;eat(mat:String, ljud:String) String&lt;br&gt;&lt;/div&gt;" style="text;strokeColor=none;fillColor=none;align=left;verticalAlign=top;spacingLeft=4;spacingRight=4;overflow=hidden;rotatable=0;points=[[0,0.5],[1,0.5]];portConstraint=eastwest;whiteSpace=wrap;html=1;" parent="txLho1STB2wt83NE6U45-17" vertex="1">
          <mxGeometry y="26" width="200" height="74" as="geometry" />
        </mxCell>
        <mxCell id="txLho1STB2wt83NE6U45-19" value="" style="line;strokeWidth=1;fillColor=none;align=left;verticalAlign=middle;spacingTop=-1;spacingLeft=3;spacingRight=3;rotatable=0;labelPosition=right;points=[];portConstraint=eastwest;strokeColor=inherit;" parent="txLho1STB2wt83NE6U45-17" vertex="1">
          <mxGeometry y="100" width="200" height="8" as="geometry" />
        </mxCell>
        <mxCell id="txLho1STB2wt83NE6U45-21" value="Bird" style="swimlane;fontStyle=1;align=center;verticalAlign=top;childLayout=stackLayout;horizontal=1;startSize=26;horizontalStack=0;resizeParent=1;resizeParentMax=0;resizeLast=0;collapsible=1;marginBottom=0;whiteSpace=wrap;html=1;" parent="WIyWlLk6GJQsqaUBKTNV-1" vertex="1">
          <mxGeometry x="-413" y="354" width="230" height="100" as="geometry">
            <mxRectangle x="-290" y="350" width="60" height="30" as="alternateBounds" />
          </mxGeometry>
        </mxCell>
        <mxCell id="txLho1STB2wt83NE6U45-23" value="" style="line;strokeWidth=1;fillColor=none;align=left;verticalAlign=middle;spacingTop=-1;spacingLeft=3;spacingRight=3;rotatable=0;labelPosition=right;points=[];portConstraint=eastwest;strokeColor=inherit;" parent="txLho1STB2wt83NE6U45-21" vertex="1">
          <mxGeometry y="26" width="230" height="8" as="geometry" />
        </mxCell>
        <mxCell id="txLho1STB2wt83NE6U45-24" value="&lt;div&gt;__init__(age; int, name:String)&lt;/div&gt;&lt;div&gt;interact(mat: String, ljud: String): String&lt;br&gt;&lt;/div&gt;&lt;div&gt;eat() String&lt;br&gt;&lt;/div&gt;" style="text;strokeColor=none;fillColor=none;align=left;verticalAlign=top;spacingLeft=4;spacingRight=4;overflow=hidden;rotatable=0;points=[[0,0.5],[1,0.5]];portConstraint=eastwest;whiteSpace=wrap;html=1;" parent="txLho1STB2wt83NE6U45-21" vertex="1">
          <mxGeometry y="34" width="230" height="66" as="geometry" />
        </mxCell>
        <mxCell id="txLho1STB2wt83NE6U45-25" value="Fish" style="swimlane;fontStyle=1;align=center;verticalAlign=top;childLayout=stackLayout;horizontal=1;startSize=26;horizontalStack=0;resizeParent=1;resizeParentMax=0;resizeLast=0;collapsible=1;marginBottom=0;whiteSpace=wrap;html=1;" parent="WIyWlLk6GJQsqaUBKTNV-1" vertex="1">
          <mxGeometry x="-720" y="354" width="240" height="100" as="geometry" />
        </mxCell>
        <mxCell id="txLho1STB2wt83NE6U45-27" value="" style="line;strokeWidth=1;fillColor=none;align=left;verticalAlign=middle;spacingTop=-1;spacingLeft=3;spacingRight=3;rotatable=0;labelPosition=right;points=[];portConstraint=eastwest;strokeColor=inherit;" parent="txLho1STB2wt83NE6U45-25" vertex="1">
          <mxGeometry y="26" width="240" height="8" as="geometry" />
        </mxCell>
        <mxCell id="txLho1STB2wt83NE6U45-28" value="&lt;div&gt;__init__(age: int, name: String)&lt;/div&gt;&lt;div&gt;interact(mat: String, ljud: String): String&lt;br&gt;&lt;/div&gt;&lt;div&gt;eat() String&lt;br&gt;&lt;/div&gt;" style="text;strokeColor=none;fillColor=none;align=left;verticalAlign=top;spacingLeft=4;spacingRight=4;overflow=hidden;rotatable=0;points=[[0,0.5],[1,0.5]];portConstraint=eastwest;whiteSpace=wrap;html=1;" parent="txLho1STB2wt83NE6U45-25" vertex="1">
          <mxGeometry y="34" width="240" height="66" as="geometry" />
        </mxCell>
        <mxCell id="txLho1STB2wt83NE6U45-33" style="edgeStyle=orthogonalEdgeStyle;rounded=0;orthogonalLoop=1;jettySize=auto;html=1;entryX=0.444;entryY=0.019;entryDx=0;entryDy=0;entryPerimeter=0;" parent="WIyWlLk6GJQsqaUBKTNV-1" source="IpZeFkb6ckXX8hu6LvWV-49" target="txLho1STB2wt83NE6U45-17" edge="1">
          <mxGeometry relative="1" as="geometry" />
        </mxCell>
        <mxCell id="txLho1STB2wt83NE6U45-36" value="" style="endArrow=none;html=1;rounded=0;" parent="WIyWlLk6GJQsqaUBKTNV-1" edge="1">
          <mxGeometry width="50" height="50" relative="1" as="geometry">
            <mxPoint x="-480" y="300" as="sourcePoint" />
            <mxPoint x="10" y="300" as="targetPoint" />
          </mxGeometry>
        </mxCell>
        <mxCell id="txLho1STB2wt83NE6U45-39" value="" style="endArrow=none;html=1;rounded=0;" parent="WIyWlLk6GJQsqaUBKTNV-1" edge="1">
          <mxGeometry width="50" height="50" relative="1" as="geometry">
            <mxPoint x="-60" y="300" as="sourcePoint" />
            <mxPoint x="280" y="300" as="targetPoint" />
          </mxGeometry>
        </mxCell>
        <mxCell id="txLho1STB2wt83NE6U45-43" value="name" style="endArrow=block;endFill=1;html=1;edgeStyle=orthogonalEdgeStyle;align=left;verticalAlign=top;rounded=0;entryX=1.013;entryY=0.127;entryDx=0;entryDy=0;entryPerimeter=0;" parent="WIyWlLk6GJQsqaUBKTNV-1" target="IpZeFkb6ckXX8hu6LvWV-42" edge="1">
          <mxGeometry x="-0.7604" y="1" relative="1" as="geometry">
            <mxPoint x="-93" y="140" as="sourcePoint" />
            <mxPoint x="-280" y="140" as="targetPoint" />
            <Array as="points" />
            <mxPoint as="offset" />
          </mxGeometry>
        </mxCell>
        <mxCell id="txLho1STB2wt83NE6U45-44" value="1" style="edgeLabel;resizable=0;html=1;align=left;verticalAlign=bottom;" parent="txLho1STB2wt83NE6U45-43" connectable="0" vertex="1">
          <mxGeometry x="-1" relative="1" as="geometry">
            <mxPoint x="-17" as="offset" />
          </mxGeometry>
        </mxCell>
        <mxCell id="txLho1STB2wt83NE6U45-48" value="" style="endArrow=classic;html=1;rounded=0;entryX=0.468;entryY=0.01;entryDx=0;entryDy=0;entryPerimeter=0;" parent="WIyWlLk6GJQsqaUBKTNV-1" target="txLho1STB2wt83NE6U45-25" edge="1">
          <mxGeometry width="50" height="50" relative="1" as="geometry">
            <mxPoint x="-480" y="300" as="sourcePoint" />
            <mxPoint x="-440" y="340" as="targetPoint" />
            <Array as="points" />
          </mxGeometry>
        </mxCell>
        <mxCell id="txLho1STB2wt83NE6U45-49" value="" style="endArrow=classic;html=1;rounded=0;entryX=0.457;entryY=-0.01;entryDx=0;entryDy=0;entryPerimeter=0;" parent="WIyWlLk6GJQsqaUBKTNV-1" target="txLho1STB2wt83NE6U45-21" edge="1">
          <mxGeometry width="50" height="50" relative="1" as="geometry">
            <mxPoint x="-210" y="300" as="sourcePoint" />
            <mxPoint x="-200.5" y="340" as="targetPoint" />
            <Array as="points" />
          </mxGeometry>
        </mxCell>
        <mxCell id="txLho1STB2wt83NE6U45-50" value="" style="endArrow=classic;html=1;rounded=0;" parent="WIyWlLk6GJQsqaUBKTNV-1" edge="1">
          <mxGeometry width="50" height="50" relative="1" as="geometry">
            <mxPoint x="280" y="300" as="sourcePoint" />
            <mxPoint x="280" y="350" as="targetPoint" />
          </mxGeometry>
        </mxCell>
      </root>
    </mxGraphModel>
  </diagram>
</mxfile>
